<svg xmlns="http://www.w3.org/2000/svg" width="179" height="53" fill="none"><path fill="url(#a)" d="M49.472 28.473c-1.21 6.683-6.492 11.966-13.174 13.176a2.21 2.21 0 0 0-1.815 2.175v.003a2.21 2.21 0 0 0 2.597 2.178c8.51-1.53 15.219-8.24 16.75-16.75a2.21 2.21 0 0 0-2.179-2.596h-.003a2.21 2.21 0 0 0-2.176 1.814"/><path fill="url(#b)" d="M15.107 26.659h-.003a2.21 2.21 0 0 0-2.178 2.597c1.53 8.51 8.24 15.22 16.75 16.75a2.21 2.21 0 0 0 2.597-2.178v-.003a2.21 2.21 0 0 0-1.815-2.175c-6.683-1.21-11.966-6.493-13.175-13.175a2.21 2.21 0 0 0-2.176-1.816"/><path fill="url(#c)" d="M15.103 24.446h.003a2.21 2.21 0 0 0 2.175-1.815c1.21-6.683 6.492-11.966 13.175-13.175a2.21 2.21 0 0 0 1.815-2.175v-.003A2.21 2.21 0 0 0 29.674 5.1c-8.51 1.53-15.22 8.24-16.75 16.75a2.21 2.21 0 0 0 2.18 2.596"/><path fill="url(#d)" d="M34.483 7.278v.003a2.21 2.21 0 0 0 1.815 2.175c6.682 1.21 11.965 6.492 13.174 13.175a2.21 2.21 0 0 0 2.175 1.815h.003a2.21 2.21 0 0 0 2.178-2.596c-1.53-8.51-8.24-15.22-16.749-16.75a2.21 2.21 0 0 0-2.596 2.178"/><path fill="url(#e)" d="M25.19 18.93a2.213 2.213 0 0 0-3.528.546 13.1 13.1 0 0 0-1.483 6.076c0 2.19.536 4.257 1.483 6.077a2.213 2.213 0 0 0 3.528.546 2.22 2.22 0 0 0 .391-2.596 8.7 8.7 0 0 1-.98-4.027c0-1.45.354-2.82.98-4.026.448-.86.296-1.91-.39-2.596"/><path fill="url(#f)" d="M41.564 18.93a2.22 2.22 0 0 0-.391 2.595 8.7 8.7 0 0 1 .98 4.027c0 1.45-.354 2.82-.98 4.026a2.22 2.22 0 0 0 .39 2.597 2.213 2.213 0 0 0 3.53-.547 13.1 13.1 0 0 0 1.482-6.076c0-2.19-.536-4.256-1.483-6.076a2.214 2.214 0 0 0-3.528-.547"/><path fill="url(#g)" d="M33.376 34.326a8.71 8.71 0 0 1-4.025-.98 2.22 2.22 0 0 0-2.598.392 2.213 2.213 0 0 0 .546 3.529 13.1 13.1 0 0 0 6.076 1.483c2.19 0 4.256-.536 6.076-1.483a2.213 2.213 0 0 0 .547-3.529h-.001a2.22 2.22 0 0 0-2.597-.391 8.7 8.7 0 0 1-4.024.98"/><path fill="url(#h)" d="M33.376 12.352c-2.19 0-4.257.536-6.076 1.483a2.213 2.213 0 0 0-.547 3.528l.002.002a2.22 2.22 0 0 0 2.597.39 8.7 8.7 0 0 1 4.025-.98c1.45 0 2.819.355 4.025.98.861.447 1.91.295 2.597-.39l.001-.002a2.213 2.213 0 0 0-.546-3.528 13.14 13.14 0 0 0-6.078-1.483"/><defs><linearGradient id="a" x1="36.628" x2="54.055" y1="46.099" y2="28.85" gradientUnits="userSpaceOnUse"><stop stop-color="#EE4A02" stop-opacity="0"/><stop offset="1" stop-color="#EE4A02"/></linearGradient><linearGradient id="b" x1="12.998" x2="29.949" y1="28.906" y2="46.125" gradientUnits="userSpaceOnUse"><stop stop-color="#8BC731" stop-opacity="0"/><stop offset="1" stop-color="#8BC731"/></linearGradient><linearGradient id="c" x1="30.232" x2="12.478" y1="5.023" y2="22.421" gradientUnits="userSpaceOnUse"><stop stop-color="#1CAAE8" stop-opacity="0"/><stop offset="1" stop-color="#1CAAE8"/></linearGradient><linearGradient id="d" x1="53.921" x2="36.613" y1="22.087" y2="5.077" gradientUnits="userSpaceOnUse"><stop stop-color="#00878D" stop-opacity="0"/><stop offset="1" stop-color="#00878D"/></linearGradient><linearGradient id="e" x1="22.969" x2="23.088" y1="18.679" y2="32.18" gradientUnits="userSpaceOnUse"><stop stop-color="#0B71D5" stop-opacity="0"/><stop offset="1" stop-color="#0B71D5"/></linearGradient><linearGradient id="f" x1="43.622" x2="43.8" y1="32.132" y2="19.226" gradientUnits="userSpaceOnUse"><stop offset=".008" stop-color="#AFD200" stop-opacity="0"/><stop offset="1" stop-color="#AFD200"/></linearGradient><linearGradient id="g" x1="26.707" x2="39.97" y1="35.94" y2="35.881" gradientUnits="userSpaceOnUse"><stop offset=".008" stop-color="#F59201" stop-opacity="0"/><stop offset="1" stop-color="#F59201"/></linearGradient><linearGradient id="h" x1="39.993" x2="26.67" y1="15.125" y2="15.304" gradientUnits="userSpaceOnUse"><stop stop-color="#05B3BA" stop-opacity="0"/><stop offset="1" stop-color="#05B3BA"/></linearGradient></defs></svg>