<?xml version="1.0" encoding="utf-8"?>
<!-- Generator: Adobe Illustrator 28.2.0, SVG Export Plug-In . SVG Version: 6.00 Build 0)  -->
<svg version="1.1" id="laughing-man" xmlns="http://www.w3.org/2000/svg" xmlns:xlink="http://www.w3.org/1999/xlink" x="0px"
	 y="0px" viewBox="0 0 1200 1600" style="enable-background:new 0 0 1200 1600;" xml:space="preserve">
<style type="text/css">
	.st0{fill:#EBBAAA;}
	.st1{fill-rule:evenodd;clip-rule:evenodd;fill:#EBBAAA;}
	.st2{fill:#E2D3BD;}
	.st3{fill:#8D5D42;}
	.st4{fill:#67432F;}
	.st5{fill:#216F74;}
	.st6{fill:#FFFFFF;}
	.st7{fill:#2F7F84;}
	.st8{fill:#FFFBFB;}
	.st9{fill:#E0E6ED;}
	.st10{fill:#F4D5CC;}
	.st11{fill:#393939;}
	.st12{fill-rule:evenodd;clip-rule:evenodd;fill:#393939;}
	.st13{clip-path:url(#SVGID_00000172404855661399866580000007628363869620809382_);fill:#F4D5CC;}
	.st14{clip-path:url(#SVGID_00000005971506579398404730000015199850839542792127_);fill:#F4D5CC;}
	.st15{clip-path:url(#SVGID_00000005971506579398404730000015199850839542792127_);fill:#393939;}
	.st16{clip-path:url(#SVGID_00000005971506579398404730000015199850839542792127_);fill:#FF6C6C;}
</style>
<g>
	<path class="st0" d="M653.5,1200v248c0,15.2,12.3,27.5,27.5,27.5c15.2,0,27.5-12.3,27.5-27.5v-248c0-15.2-12.3-27.5-27.5-27.5
		C665.8,1172.5,653.5,1184.8,653.5,1200z"/>
	<path class="st1" d="M701.5,1412c0,0,3.5,22,30.5,25.5l-3,24.7h-61L701.5,1412z M491.5,1416c0,0-3.5,22-30.5,25.5l3,24.7h61
		L491.5,1416z"/>
	<path class="st0" d="M491.5,1200v265c0,15.2,12.3,27.5,27.5,27.5c15.2,0,27.5-12.3,27.5-27.5v-265c0-15.2-12.3-27.5-27.5-27.5
		C503.8,1172.5,491.5,1184.8,491.5,1200z"/>
	<ellipse class="st2" cx="600" cy="1058.5" rx="115" ry="52.5"/>
	<polygon class="st2" points="599,938 729,938 729,1404 634.8,1404 	"/>
	<polygon class="st2" points="601,938 471,938 471,1404 565.2,1404 	"/>
	<path class="st3" d="M839.4,1492c0.2-18.1-0.4-25.1-30.9-29.5c-30.5-4.4-38.5-15.5-73-27.8c0,0-13,4.8-10.5,19.8
		c-14,13.5-52,5-63.8-12.8c-3.2-6.9-10.2-6.9-10.2-6.9s-9.9,12.8-10,27.8c-0.1,14.9-0.1,31.9-0.1,31.9L839.4,1492z"/>
	<path class="st4" d="M640.4,1494.3l0.9-11.1l158.6,2.5l39.5-2.9l0.8,6.7c0.6,4.9-3,9.4-8,9.7l-32.6,2.2l-155.1-2.4
		C642.1,1499,640.2,1496.8,640.4,1494.3z"/>
	<path class="st3" d="M360.5,1492c-0.2-18.1,0.4-25.1,30.9-29.5c30.5-4.4,38.5-15.5,73-27.8c0,0,13,4.8,10.5,19.8
		c14,13.5,52,5,63.8-12.8c3.2-6.9,10.2-6.9,10.2-6.9s9.9,12.8,10,27.8c0.1,14.9,0.1,31.9,0.1,31.9L360.5,1492z"/>
	<path class="st4" d="M559.6,1494.3l-0.9-11.1l-158.6,2.5l-39.5-2.9l-0.8,6.7c-0.6,4.9,3,9.4,8,9.7l32.6,2.2l155.1-2.4
		C557.8,1499,559.8,1496.8,559.6,1494.3z"/>
	<path class="st0" d="M677.1,734.2c18.9,33.5,37.1,86.2,48.6,139.4l0.6,2.8c5.1,24.2,8.5,46.9,9.7,65.7c0.6,9.4,0.7,17.6,0.3,24.3
		c-0.2,2.8-0.5,5.2-0.8,7.2l-0.1,0.5c-0.3,1.5-0.5,2.6-0.8,3.2l0,0.1c-7,19.2,2.9,40.4,22.1,47.4c19.2,7,40.4-2.9,47.4-22.1
		c10.8-29.8,7.4-82.4-6.1-144.7c-12.9-59.8-33.5-119.4-56.4-160.1c-10-17.8-32.6-24.1-50.4-14S667.1,716.4,677.1,734.2z M450,697.8
		c-23,40.7-43.5,100.3-56.4,160.1c-13.5,62.4-17,114.9-6.1,144.7c7,19.2,28.2,29.1,47.4,22.1c19-6.9,28.9-27.8,22.3-46.8l-0.2-0.6
		c-0.2-0.6-0.5-1.6-0.7-3l-0.1-0.3c-0.4-2.1-0.7-4.7-0.9-7.7c-0.4-6.6-0.4-14.8,0.3-24.3c1.3-19.2,4.7-42.4,10-67.1l0.3-1.4
		c11.5-53.1,29.7-105.9,48.6-139.4c10-17.8,3.8-40.4-14-50.4C482.6,673.7,460,680,450,697.8z"/>
	<path class="st5" d="M498.1,608.3L498.1,608.3c40.2,7.1,67,45.4,59.9,85.6l-36.8,208.7c-7.1,40.2-45.4,67-85.6,59.9h0
		c-40.2-7.1-67-45.4-59.9-85.6l36.8-208.7C419.6,628,457.9,601.2,498.1,608.3z"/>
	<path class="st5" d="M693.7,608.3L693.7,608.3c-40.2,7.1-67,45.4-59.9,85.6l36.8,208.7c7.1,40.2,45.4,67,85.6,59.9
		c40.2-7.1,67-45.4,59.9-85.6l-36.8-208.7C772.2,628,733.9,601.2,693.7,608.3z"/>
	<path class="st5" d="M376.2,975c-6.4-18.4-2.2-107,5.8-137l108.2,19C478,895,476,945,467,994l-0.2,0
		C445.7,995,384.2,997.9,376.2,975z M814,980c6.4-18.4,8-83,0-113l-114-5c12.2,38,14.2,88,23.2,137l0.2,0
		C744.5,1000,806,1002.9,814,980z"/>
	<path class="st6" d="M452.3,638.6c-1.3-25.9,21.1-43.5,46.7-47.1L600,572l100,22.8c25.6,3.6,49,18,47.7,43.9L740,794l9.6,247.6
		c0.2,5.7-4.3,10.4-10,10.4H460.4c-5.7,0-10.2-4.7-10-10.4L460,794L452.3,638.6z"/>
	<path class="st7" d="M766.7,664.1c1.9-27.6-15.3-53-41.7-61.3l-60.9-19.3c-11.4-3.6-23.7,2.1-28.2,13.1L613,652l-13,70v295l26,21
		h132.4c6.1,0,10.8-5.4,9.9-11.5L750,905L766.7,664.1z M435.6,676.3c-3-48.4,35.4-89.3,83.8-89.3h22c8.9,0,16.9,5.1,20.8,13.1
		L587,652l13,70v295l-26,21H441.6c-6.1,0-10.8-5.4-9.9-11.5L450,905L435.6,676.3z"/>
	<circle class="st6" cx="600" cy="819" r="7"/>
	<circle class="st6" cx="599" cy="880" r="7"/>
	<circle class="st6" cx="600" cy="938" r="7"/>
	<circle class="st6" cx="600" cy="762" r="7"/>
	<path class="st0" d="M599.9,534h0.2c20.9,0,37.9,17,37.9,37.9v39.2c0,20.9-17,37.9-37.9,37.9h-0.2c-20.9,0-37.9-17-37.9-37.9v-39.2
		C562,551,579,534,599.9,534"/>
	<polygon class="st5" points="610,644 637,565 674,586 651,671 	"/>
	<polygon class="st5" points="590,644 563,565 526,586 549,671 	"/>
	<polygon class="st5" points="632,747 732,747 722,840.1 682,862 642,840.1 	"/>
	<circle class="st0" cx="742.5" cy="391.5" r="57.5"/>
	<circle class="st8" cx="755.5" cy="391.5" r="32.5"/>
	<path class="st9" d="M770.1,399.3L770.1,399.3c4.8,1.3,7.6,6.2,6.3,10.9L764,456.6c-1.3,4.8-6.2,7.6-10.9,6.3l0,0
		c-4.8-1.3-7.6-6.2-6.3-10.9l12.4-46.4C760.4,400.9,765.3,398,770.1,399.3z"/>
	<circle class="st0" cx="457.5" cy="391.5" r="57.5"/>
	<circle class="st8" cx="446.5" cy="391.5" r="32.5"/>
	<path class="st9" d="M429.9,399.3L429.9,399.3c-4.8,1.3-7.6,6.2-6.3,10.9l12.4,46.4c1.3,4.8,6.2,7.6,10.9,6.3l0,0
		c4.8-1.3,7.6-6.2,6.3-10.9l-12.4-46.4C439.6,400.9,434.7,398,429.9,399.3z"/>
	<path class="st10" d="M600,117c82.8,0,150,67.2,150,150v170c0,82.8-67.2,150-150,150c-82.8,0-150-67.2-150-150V267
		C450,184.2,517.2,117,600,117"/>
	<path class="st11" d="M619,329c0-5,4-9,9-9h94c5,0,9,4,9,9v42c0,19.9-16.1,36-36,36h-40c-19.9,0-36-16.1-36-36V329z M631,332v39
		c0,13.3,10.7,24,24,24h40c13.3,0,24-10.7,24-24v-39H631z"/>
	<rect x="575" y="342" class="st11" width="50" height="10"/>
	<path class="st11" d="M469,329c0-5,4-9,9-9h94c5,0,9,4,9,9v42c0,19.9-16.1,36-36,36h-40c-19.9,0-36-16.1-36-36V329z M481,332v39
		c0,13.3,10.7,24,24,24h40c13.3,0,24-10.7,24-24v-39H481z M597.8,200.6c-73.9,0-128.6,0-132.5,53.9c-3.3,45-24.5,27.5-26.3-17
		C443.2,123.2,554.9,99,601,99C638.8,129.7,671.7,200.6,597.8,200.6z"/>
	<path class="st11" d="M444.5,251.2c-0.2-6.1,4.6-11.2,10.8-11.2c6.4,0,11.3,5.5,10.7,11.8l-10.1,107.1c-0.2,1.8-1.7,3.2-3.5,3.2
		c-1.9,0-3.4-1.5-3.5-3.3L444.5,251.2z M754,251.2c0.2-6.1-4.6-11.2-10.8-11.2c-6.3,0-11.3,5.5-10.7,11.8l10.1,107.1
		c0.2,1.8,1.7,3.2,3.5,3.2c1.9,0,3.4-1.5,3.5-3.3L754,251.2z"/>
	<path class="st11" d="M599.4,200.6c76.2,0,142.2,0,145.3,54.9c7.8,43,16.2,29.5,18.3-18C758.7,123.2,644,99,596.5,99
		C557.6,129.7,523.2,200.6,599.4,200.6z"/>
	<path class="st11" d="M490.9,238.2c-2.6-34.7-7.7-50.5-2.8-64.2l244.4-6l28.5,90.5l-10.6,68.8c-5.3-33.6-17.9-94.8-41-112.3
		c-35.7-26.9-68.7-2.1-86.3,17.4c0-23.8-10.2-23.3-19.2-28.2c1.3,22.5-45.3,31.7-67.4,31.7c20.7-9.2,24.1-25.8,14.2-34
		C520.5,204.3,513.4,207.9,490.9,238.2z"/>
	<path d="M650.5,338.4v27.9c0,6.6,5.4,12,12,12c6.6,0,12-5.4,12-12v-27.9c0-6.6-5.4-12-12-12C655.9,326.4,650.5,331.8,650.5,338.4z
		 M525.5,338.4v27.9c0,6.6,5.4,12,12,12c6.6,0,12-5.4,12-12v-27.9c0-6.6-5.4-12-12-12C530.8,326.4,525.5,331.8,525.5,338.4z"/>
	<path class="st11" d="M651.6,299.4l55.3,5.8c6.6,0.7,12.5-4.1,13.2-10.7c0.7-6.6-4.1-12.5-10.7-13.2l-55.3-5.8
		c-6.6-0.7-12.5,4.1-13.2,10.7S645,298.7,651.6,299.4z M549.9,275.5l-55.3,5.8c-6.6,0.7-11.4,6.6-10.7,13.2
		c0.7,6.6,6.6,11.4,13.2,10.7l55.3-5.8c6.6-0.7,11.4-6.6,10.7-13.2C562.4,279.6,556.5,274.8,549.9,275.5z"/>
	<path class="st0" d="M593.5,384.8c-5.9,10.4-9.4,21.8-8.9,31.2c0.6,12.9,8.7,21.5,22.3,21.5v-17l-0.5,0c-3.7-0.1-4.7-1.3-4.8-5.3
		c-0.3-5.7,2.3-14.1,6.7-22L593.5,384.8z"/>
	<path class="st12" d="M545,467v19.8c0,30.5,24.7,55.2,55.2,55.2c30.5,0,55.2-24.7,55.2-55.2V467H545"/>
	<g>
		<defs>
			<path id="SVGID_1_" d="M600.4,559.7H600c0.1,0,0.1,0,0.2,0S600.3,559.7,600.4,559.7 M633.5,541.5v0.2
				C633.5,541.6,633.5,541.6,633.5,541.5C633.5,541.6,633.5,541.5,633.5,541.5"/>
		</defs>
		<clipPath id="SVGID_00000176029564539364148670000005472286656229664181_">
			<use xlink:href="#SVGID_1_"  style="overflow:visible;"/>
		</clipPath>
		
			<rect x="600" y="541.5" style="clip-path:url(#SVGID_00000176029564539364148670000005472286656229664181_);fill:#F4D5CC;" width="33.5" height="18.2"/>
	</g>
	<g>
		<defs>
			<polyline id="SVGID_00000129188565057641258960000005628981396545998752_" points="566.9,523.5 633.5,523.5 633.5,559.7 
				566.9,559.7 566.9,523.5 			"/>
		</defs>
		<clipPath id="SVGID_00000058581217091566451900000013554892672198687361_">
			<use xlink:href="#SVGID_00000129188565057641258960000005628981396545998752_"  style="overflow:visible;"/>
		</clipPath>
		<path style="clip-path:url(#SVGID_00000058581217091566451900000013554892672198687361_);fill:#F4D5CC;" d="M570.3,533.6
			c-2.2,2.4-3.4,5.1-3.4,8l0,0c0,10,14.8,18,33.1,18.1h0.4c18.2-0.1,33-8.1,33.1-18v-0.2c0-2.8-1.2-5.5-3.4-7.9
			c-8.3,5.1-18,8.1-28.5,8.4c-0.5,0-0.9,0-1.4,0c-0.5,0-0.9,0-1.3,0C588.3,541.7,578.5,538.7,570.3,533.6"/>
		<path style="clip-path:url(#SVGID_00000058581217091566451900000013554892672198687361_);fill:#393939;" d="M601.5,542
			c-0.5,0-0.9,0-1.4,0c-0.5,0-0.9,0-1.3,0c0.4,0,0.9,0,1.3,0C600.6,542,601.1,542,601.5,542"/>
		<path style="clip-path:url(#SVGID_00000058581217091566451900000013554892672198687361_);fill:#FF6C6C;" d="M629.8,533.4
			c-8.2,5.2-17.9,8.4-28.3,8.6c10.5-0.2,20.3-3.3,28.5-8.4C630,533.5,629.9,533.4,629.8,533.4 M570.5,533.4
			c-0.1,0.1-0.2,0.2-0.2,0.3c8.3,5.1,18,8.1,28.5,8.4C588.4,541.7,578.7,538.6,570.5,533.4"/>
		<path style="clip-path:url(#SVGID_00000058581217091566451900000013554892672198687361_);fill:#FF6C6C;" d="M600.2,523.5
			c-12.9,0-24.2,4-29.7,9.9c8.2,5.2,17.9,8.4,28.3,8.6c0.4,0,0.9,0,1.3,0c0.5,0,0.9,0,1.4,0c10.4-0.3,20.1-3.4,28.3-8.6
			C624.3,527.5,613.1,523.5,600.2,523.5"/>
	</g>
	<rect x="545" y="467" class="st6" width="110.4" height="22.7"/>
</g>
</svg>
